<svg width="37" height="33" viewBox="0 0 37 33" fill="none" xmlns="http://www.w3.org/2000/svg">
    <path d="M33.9244 19.421L36.961 6.0147C37.1802 5.04674 36.447 4.125 35.4577 4.125H10.2269L9.63811 1.23686C9.4914 0.516979 8.86009 0 8.12773 0H1.54167C0.690217 0 0 0.692549 0 1.54688V2.57812C0 3.43245 0.690217 4.125 1.54167 4.125H6.03068L10.5431 26.2605C9.46358 26.8834 8.73611 28.0514 8.73611 29.3906C8.73611 31.384 10.3466 33 12.3333 33C14.32 33 15.9306 31.384 15.9306 29.3906C15.9306 28.3804 15.5164 27.4677 14.8498 26.8125H28.3168C27.6502 27.4677 27.2361 28.3804 27.2361 29.3906C27.2361 31.384 28.8466 33 30.8333 33C32.82 33 34.4306 31.384 34.4306 29.3906C34.4306 27.9616 33.6027 26.7266 32.402 26.1419L32.7564 24.5772C32.9757 23.6092 32.2424 22.6875 31.2531 22.6875H14.011L13.5906 20.625H32.4211C33.1409 20.625 33.7649 20.1252 33.9244 19.421Z" fill="#F8F8F8"/>
    </svg>